<svg
    width="14.464in" height="5.624in" viewBox="0 0 1041.388 404.934"
    data-vivus="{&quot;start&quot;:&quot;autostart&quot;,&quot;type&quot;:&quot;sync&quot;,&quot;duration&quot;:180,&quot;reverseStack&quot;:false}"
    role="img" aria-hidden="true" preserveAspectRatio="none">
    <path
        d="M-3.925,55.857c19.617-21.587,47.962-37.594,79.336-44.8,23.781-5.464,51.514-5.295,70.57,7.729,22.3,15.244,27.816,44.474,53.345,55.691,36.568,16.067,86.691-16.417,120.731,3.112,14,8.034,20.128,22.584,31.623,33.01,22.146,20.088,59.52,21.43,92.007,17.778s66.115-10.766,97.373-2.554c16.973,4.459,31.8,13.139,46.327,21.691l75.921,44.7c17.853,10.511,36.376,21.272,57.793,24.992,14.654,2.545,29.819,1.626,44.748.7l204.793-12.754c14.426-.9,29.2-1.771,43.133,1.453s27.109,11.416,30.833,23.033"
        fill="none" stroke-miterlimit="10" vector-effect="non-scaling-stroke"
        style="stroke-dasharray: 1820px, 1822px; stroke-dashoffset: 0px;"></path>
    <path
        d="M-4.4,58.9C15.665,37.97,44.245,22.921,75.311,16.748c23.657-4.616,50.746-3.572,69.678,9.63A67.38,67.38,0,0,1,157.74,38.236c13.037,15.32,21.229,34.482,41.033,43.15,31.362,13.723,72.432-6.906,105.142-1.29a49.493,49.493,0,0,1,15.4,5.214c14.043,7.654,20.582,21.481,32.234,31.36,22.57,19.023,59.638,20.1,92.049,16.446,4.16-.469,8.338-.992,12.527-1.531,28.466-3.664,57.453-8.063,84.717-1.267,16.958,4.233,31.872,12.525,46.487,20.748q15.007,8.446,30,16.973,23.163,13.172,46.255,26.518c17.923,10.336,36.463,20.959,57.764,24.864,14.6,2.681,29.682,2.058,44.553,1.4q27.681-1.233,55.426-2.63c49.622-2.541,99.294-5.677,148.973-8.826,14.4-.912,29.134-1.8,43.071,1.224,13.89,3.029,27.054,10.8,31.215,21.854"
        fill="none" stroke-miterlimit="10" vector-effect="non-scaling-stroke"
        style="stroke-dasharray: 1811px, 1813px; stroke-dashoffset: 0px;"></path>
    <path
        d="M-4.866,61.95c20.5-20.281,49.3-34.476,80.077-39.509C98.731,18.6,125.19,20.593,144,33.973a71.973,71.973,0,0,1,12.73,11.846c13.11,15.176,21.748,33.87,41.5,42.478,31.343,13.659,72.123-5.634,104.927-.232a51.945,51.945,0,0,1,15.424,4.97c14.084,7.273,21.011,20.41,32.847,29.708,22.942,18.024,59.754,18.777,92.09,15.116,4.155-.471,8.327-.992,12.509-1.528,28.407-3.639,57.328-7.948,84.607-1.515,16.942,4.008,31.94,11.911,46.647,19.805q15.093,8.107,30.159,16.375,23.286,12.78,46.432,25.907c17.991,10.16,36.549,20.644,57.734,24.735,14.539,2.817,29.545,2.49,44.358,2.1q27.565-.736,55.259-1.8c49.51-1.985,99.12-5.16,148.746-8.359,14.38-.927,29.073-1.833,43.01.994,13.844,2.833,27,10.183,31.6,20.675"
        fill="none" stroke-miterlimit="10" vector-effect="non-scaling-stroke"
        style="stroke-dasharray: 1803px, 1805px; stroke-dashoffset: 0px;"></path>
    <path
        d="M-5.337,65C15.61,45.368,44.64,32.085,75.111,28.134,98.506,25.1,124.323,28.01,143,41.568A77.151,77.151,0,0,1,155.711,53.4c13.184,15.032,22.268,33.256,41.957,41.806,31.325,13.594,71.814-4.363,104.713.825a54.786,54.786,0,0,1,15.449,4.725c14.124,6.893,21.455,19.322,33.458,28.057,23.347,16.991,59.872,17.451,92.133,13.785,4.149-.471,8.315-.991,12.49-1.523,28.347-3.615,57.2-7.835,84.5-1.764,16.927,3.783,32.01,11.3,46.807,18.862q15.178,7.769,30.318,15.778,23.409,12.386,46.608,25.294c18.061,9.985,36.636,20.331,57.705,24.608,14.482,2.953,29.408,2.921,44.163,2.8,18.3-.158,36.648-.44,55.092-.965,49.4-1.429,98.947-4.642,148.519-7.893,14.357-.941,29.011-1.863,42.949.765,13.8,2.638,26.94,9.566,31.979,19.5"
        fill="none" stroke-miterlimit="10" vector-effect="non-scaling-stroke"
        style="stroke-dasharray: 1795px, 1797px; stroke-dashoffset: 0px;"></path>
    <path
        d="M-5.808,68.042C15.583,49.067,44.849,36.7,75.011,33.828c23.272-2.217,48.445,1.6,67,15.335A83.226,83.226,0,0,1,154.7,60.987c13.257,14.887,22.786,32.643,42.418,41.133,31.307,13.531,71.506-3.091,104.5,1.883a58,58,0,0,1,15.474,4.481c14.163,6.512,21.9,18.233,34.069,26.406,23.756,15.956,59.989,16.124,92.175,12.454,4.144-.473,8.3-.99,12.472-1.519,28.287-3.592,57.078-7.721,84.386-2.012,16.911,3.557,32.079,10.681,46.967,17.918q15.264,7.431,30.476,15.18c15.688,8,31.264,16.27,46.784,24.682,18.13,9.81,36.723,20.018,57.676,24.48,14.425,3.089,29.271,3.352,43.968,3.5,18.223.173,36.51.182,54.925-.134,49.286-.872,98.774-4.124,148.292-7.426,14.334-.955,28.949-1.893,42.888.536,13.751,2.442,26.883,8.95,32.36,18.318"
        fill="none" stroke-miterlimit="10" vector-effect="non-scaling-stroke"
        style="stroke-dasharray: 1788px, 1790px; stroke-dashoffset: 0px;"></path>
    <path
        d="M-6.279,71.088c21.835-18.322,51.34-29.765,81.19-31.567,23.152-1.4,47.677,3.323,66.107,17.237A90.452,90.452,0,0,1,153.683,68.57c13.33,14.744,23.305,32.031,42.879,40.462,31.289,13.466,71.2-1.82,104.285,2.939a61.862,61.862,0,0,1,15.5,4.237c14.2,6.133,22.351,17.144,34.681,24.755,24.169,14.92,60.106,14.8,92.216,11.123,4.139-.473,8.292-.989,12.454-1.515,28.228-3.567,56.954-7.606,84.275-2.26,16.9,3.332,32.148,10.067,47.127,16.975q15.349,7.092,30.635,14.583c15.77,7.733,31.4,15.815,46.96,24.069,18.2,9.635,36.811,19.7,57.647,24.353,14.368,3.225,29.134,3.783,43.774,4.2,18.145.5,36.371.805,54.756.7,49.175-.316,98.6-3.607,148.065-6.959,14.312-.969,28.888-1.924,42.827.306,13.705,2.246,26.827,8.333,32.743,17.139"
        fill="none" stroke-miterlimit="10" vector-effect="non-scaling-stroke"
        style="stroke-dasharray: 1782px, 1784px; stroke-dashoffset: 0px;"></path>
    <path
        d="M-6.75,74.135c22.279-17.67,52.026-28.185,81.562-28.92,23.033-.573,46.909,5.046,65.214,19.137a99.192,99.192,0,0,1,12.643,11.8c13.4,14.6,23.824,31.417,43.34,39.789,31.271,13.4,70.889-.548,104.071,4a66.183,66.183,0,0,1,15.523,3.992c14.244,5.753,22.8,16.053,35.293,23.1,24.587,13.881,60.224,13.473,92.258,9.793,4.134-.475,8.281-.989,12.436-1.511,28.168-3.543,56.829-7.493,84.165-2.509,16.881,3.107,32.217,9.453,47.287,16.032q15.435,6.753,30.793,13.985c15.852,7.471,31.536,15.361,47.136,23.458,18.269,9.459,36.9,19.39,57.618,24.224,14.31,3.361,29,4.215,43.579,4.9,18.069.837,36.233,1.428,54.589,1.531,49.063.24,98.429-3.089,147.838-6.493,14.288-.983,28.831-1.984,42.766.077,13.663,2.021,26.77,7.716,33.124,15.96"
        fill="none" stroke-miterlimit="10" vector-effect="non-scaling-stroke"
        style="stroke-dasharray: 1776px, 1778px; stroke-dashoffset: 0px;"></path>
    <path
        d="M-7.22,77.181C15.5,60.164,45.493,50.582,74.712,50.908c22.917.255,46.142,6.77,64.321,21.039a109.706,109.706,0,0,1,12.622,11.791c13.476,14.455,24.343,30.8,43.8,39.117,31.253,13.338,70.58.723,103.857,5.054a71.361,71.361,0,0,1,15.548,3.748c14.284,5.372,23.255,14.959,35.9,21.452,25.008,12.839,60.341,12.147,92.3,8.463,4.129-.477,8.27-.988,12.418-1.507,28.109-3.519,56.7-7.379,84.054-2.758,16.866,2.881,32.286,8.839,47.447,15.089q15.52,6.416,30.952,13.388c15.934,7.208,31.672,14.906,47.313,22.845,18.338,9.284,36.984,19.077,57.588,24.1,14.253,3.5,28.86,4.646,43.384,5.6,17.992,1.169,36.1,2.05,54.422,2.363,48.952.8,98.256-2.572,147.611-6.026,14.265-1,28.769-2.019,42.7-.153,13.616,1.823,26.713,7.1,33.506,14.781"
        fill="none" stroke-miterlimit="10" vector-effect="non-scaling-stroke"
        style="stroke-dasharray: 1771px, 1773px; stroke-dashoffset: 0px;"></path>
    <path
        d="M-7.691,80.227c23.165-16.364,53.4-25.005,82.3-23.626,22.8,1.089,45.375,8.494,63.429,22.941a123.009,123.009,0,0,1,12.6,11.78c13.548,14.31,24.862,30.191,44.262,38.444,31.236,13.274,70.272,2,103.643,6.112a76.742,76.742,0,0,1,15.573,3.5c14.334,4.963,23.71,13.865,36.515,19.8,25.434,11.792,60.459,10.82,92.343,7.131,4.123-.477,8.258-.987,12.4-1.5,28.049-3.494,56.579-7.264,83.944-3.006,16.85,2.656,32.355,8.225,47.607,14.146q15.606,6.077,31.11,12.79c16.016,6.946,31.808,14.452,47.489,22.233,18.407,9.109,37.071,18.763,57.559,23.969,14.2,3.633,28.723,5.078,43.189,6.3,17.915,1.5,35.957,2.674,54.255,3.2,48.84,1.353,98.082-2.054,147.384-5.56,14.242-1.012,28.707-2.051,42.644-.382,13.57,1.626,26.656,6.483,33.888,13.6"
        fill="none" stroke-miterlimit="10" vector-effect="non-scaling-stroke"
        style="stroke-dasharray: 1766px, 1768px; stroke-dashoffset: 0px;"></path>
    <path
        d="M-8.162,83.273c23.609-15.71,54.094-23.4,82.674-20.978a113.86,113.86,0,0,1,62.536,24.842,139.562,139.562,0,0,1,12.578,11.768c13.622,14.167,25.382,29.578,44.724,37.773,31.218,13.21,69.963,3.265,103.429,7.168a84.029,84.029,0,0,1,15.6,3.26c14.373,4.581,24.167,12.767,37.127,18.15,25.861,10.742,60.575,9.494,92.384,5.8,4.118-.479,8.246-.987,12.381-1.5,27.989-3.47,56.454-7.151,83.833-3.254,16.835,2.43,32.424,7.61,47.767,13.2q15.692,5.737,31.269,12.193c16.1,6.684,31.944,14,47.665,21.621,18.477,8.933,37.158,18.449,57.53,23.841,14.138,3.769,28.586,5.508,42.994,7,17.838,1.833,35.819,3.3,54.088,4.028,48.728,1.909,97.909-1.537,147.157-5.093,14.219-1.027,28.645-2.084,42.582-.612,13.524,1.429,26.6,5.866,34.27,12.423"
        fill="none" stroke-miterlimit="10" vector-effect="non-scaling-stroke"
        style="stroke-dasharray: 1762px, 1764px; stroke-dashoffset: 0px;"></path>
    <path
        d="M-8.633,86.32C15.42,71.262,46.152,64.52,74.412,67.988a118.755,118.755,0,0,1,61.644,26.744,162.164,162.164,0,0,1,12.556,11.757c13.695,14.023,25.9,28.965,45.186,37.1,31.2,13.146,69.654,4.537,103.214,8.226a92.861,92.861,0,0,1,15.622,3.015c14.413,4.2,24.625,11.668,37.739,16.5,26.292,9.688,60.693,8.169,92.426,4.47,4.113-.479,8.235-.985,12.363-1.494,27.93-3.446,56.33-7.037,83.723-3.5,16.819,2.205,32.493,7,47.926,12.259q15.779,5.4,31.428,11.6c16.18,6.422,32.08,13.543,47.841,21.009,18.546,8.758,37.246,18.136,57.5,23.713,14.081,3.905,28.449,5.94,42.8,7.7,17.76,2.164,35.68,3.918,53.92,4.859,48.616,2.466,97.736-1.018,146.93-4.626,14.2-1.04,28.583-2.115,42.521-.841,13.477,1.232,26.544,5.249,34.652,11.245"
        fill="none" stroke-miterlimit="10" vector-effect="non-scaling-stroke"
        style="stroke-dasharray: 1759px, 1761px; stroke-dashoffset: 0px;"></path>
    <path
        d="M-9.1,89.366A128.564,128.564,0,0,1,74.313,73.681c22.46,3.619,43.072,13.665,60.75,28.646,4.42,3.715,8.512,7.7,12.535,11.746,13.768,13.878,26.419,28.352,45.647,36.428,31.181,13.081,69.345,5.808,103,9.283a104.07,104.07,0,0,1,15.647,2.771c14.452,3.819,25.084,10.565,38.35,14.848,26.725,8.627,60.811,6.842,92.468,3.139q6.162-.721,12.345-1.491c27.87-3.421,56.2-6.922,83.612-3.751,16.8,1.98,32.562,6.382,48.087,11.316q15.864,5.061,31.586,11c16.262,6.159,32.216,13.088,48.017,20.4,18.616,8.583,37.333,17.822,57.472,23.586,14.024,4.041,28.312,6.371,42.605,8.4,17.683,2.5,35.542,4.542,53.753,5.692,48.5,3.022,97.563-.5,146.7-4.16,14.174-1.054,28.521-2.145,42.461-1.07,13.43,1.037,26.487,4.633,35.033,10.066"
        fill="none" stroke-miterlimit="10" vector-effect="non-scaling-stroke"
        style="stroke-dasharray: 1757px, 1759px; stroke-dashoffset: 0px;"></path>
    <path
        d="M-9.574,92.412C15.366,78.66,46.591,73.845,74.213,79.375c22.345,4.473,42.305,15.389,59.858,30.546,4.371,3.746,8.461,7.729,12.513,11.735,13.841,13.735,26.938,27.739,46.108,35.756,31.163,13.018,69.037,7.08,102.786,10.341a118.492,118.492,0,0,1,15.672,2.526c14.491,3.439,25.544,9.461,38.962,13.2,27.159,7.562,60.927,5.516,92.51,1.808q6.153-.723,12.326-1.486c27.81-3.4,56.08-6.809,83.5-4,16.789,1.755,32.631,5.767,48.246,10.373q15.949,4.722,31.745,10.4c16.344,5.9,32.353,12.634,48.193,19.785,18.686,8.407,37.42,17.508,57.443,23.457,13.966,4.177,28.175,6.8,42.41,9.1,17.606,2.828,35.4,5.164,53.586,6.524,48.392,3.578,97.39.017,146.475-3.693,14.151-1.069,28.459-2.176,42.4-1.3,13.383.842,26.43,4.016,35.415,8.887"
        fill="none" stroke-miterlimit="10" vector-effect="non-scaling-stroke"
        style="stroke-dasharray: 1755px, 1757px; stroke-dashoffset: 0px;"></path>
    <path
        d="M-10.045,95.458c25.383-13.1,56.852-16.94,84.158-10.39,22.228,5.333,41.538,17.113,58.965,32.448,4.323,3.776,8.41,7.751,12.492,11.724,13.914,13.59,27.457,27.126,46.569,35.084,31.145,12.953,68.728,8.351,102.572,11.4a137.866,137.866,0,0,1,15.7,2.282c14.531,3.061,26,8.354,39.574,11.546,27.594,6.492,61.045,4.19,92.552.478q6.145-.724,12.308-1.482c27.751-3.373,55.955-6.695,83.391-4.248,16.774,1.529,32.7,5.152,48.407,9.429q16.035,4.383,31.9,9.8c16.426,5.635,32.489,12.18,48.37,19.172,18.754,8.232,37.506,17.195,57.413,23.33a355.4,355.4,0,0,0,42.215,9.8c17.529,3.161,35.266,5.787,53.418,7.357,48.281,4.134,97.218.534,146.249-3.227,14.128-1.083,28.4-2.2,42.339-1.529,13.336.647,26.373,3.4,35.8,7.708"
        fill="none" stroke-miterlimit="10" vector-effect="non-scaling-stroke"
        style="stroke-dasharray: 1754px, 1756px; stroke-dashoffset: 0px;"></path>
    <path
        d="M-10.516,98.5C15.311,86.058,47.021,83.2,74.013,90.762c22.109,6.2,40.77,18.836,58.072,34.349,4.276,3.806,8.36,7.774,12.47,11.713,13.988,13.446,27.977,26.513,47.031,34.411,31.127,12.889,68.42,9.623,102.358,12.455,5.331.458,10.583,1.092,15.721,2.038,14.57,2.681,26.465,7.243,40.185,9.894,28.03,5.416,61.162,2.864,92.594-.853q6.138-.726,12.29-1.478c27.691-3.348,55.831-6.58,83.281-4.5,16.758,1.3,32.769,4.538,48.566,8.486,10.747,2.7,21.443,5.741,32.062,9.2,16.508,5.373,32.625,11.726,48.546,18.56,18.824,8.057,37.593,16.881,57.384,23.2a383.617,383.617,0,0,0,42.02,10.5c17.452,3.492,35.128,6.409,53.251,8.189,48.17,4.69,97.044,1.052,146.022-2.76,14.105-1.1,28.334-2.234,42.277-1.759,13.289.454,26.317,2.783,36.179,6.529"
        fill="none" stroke-miterlimit="10" vector-effect="non-scaling-stroke"
        style="stroke-dasharray: 1753px, 1755px; stroke-dashoffset: 0px;"></path>
    <path
        d="M-10.987,101.551c26.271-11.794,58.219-13.671,84.9-5.1,21.988,7.066,40,20.56,57.18,36.251,4.227,3.836,8.308,7.8,12.448,11.7,14.061,13.3,28.5,25.9,47.492,33.739,31.11,12.825,68.112,10.894,102.144,13.512,5.327.421,10.584.989,15.746,1.793,14.6,2.331,26.925,6.131,40.8,8.244,28.464,4.334,61.279,1.538,92.635-2.184q6.13-.728,12.272-1.474c27.632-3.324,55.706-6.467,83.17-4.745a307.251,307.251,0,0,1,48.727,7.543c10.8,2.471,21.553,5.314,32.219,8.608,16.591,5.111,32.762,11.271,48.723,17.947,18.893,7.882,37.681,16.568,57.355,23.074a416.525,416.525,0,0,0,41.825,11.2,501.211,501.211,0,0,0,53.084,9.021c48.058,5.247,96.871,1.569,145.795-2.294,14.082-1.111,28.272-2.262,42.216-1.988,13.242.261,26.26,2.166,36.561,5.35"
        fill="none" stroke-miterlimit="10" vector-effect="non-scaling-stroke"
        style="stroke-dasharray: 1753px, 1755px; stroke-dashoffset: 0px;"></path>
    <path
        d="M-11.458,104.6c26.715-11.141,58.9-12.027,85.271-2.449,21.863,7.941,39.236,22.284,56.287,38.153,4.179,3.866,8.257,7.819,12.427,11.69,14.134,13.158,29.014,25.287,47.953,33.067,31.092,12.761,67.8,12.166,101.93,14.57,5.323.385,10.586.875,15.771,1.549,14.644,1.95,27.384,5.016,41.408,6.592,28.9,3.248,61.4.212,92.677-3.515q6.123-.729,12.255-1.469c27.571-3.3,55.58-6.353,83.059-4.994a322.956,322.956,0,0,1,48.886,6.6c10.861,2.245,21.664,4.888,32.378,8.01a499.19,499.19,0,0,1,48.9,17.336c18.963,7.706,37.768,16.254,57.326,22.946,13.737,4.721,27.628,8.528,41.631,11.9a467.968,467.968,0,0,0,52.916,9.854c47.946,5.8,96.7,2.086,145.568-1.828,14.059-1.125,28.209-2.289,42.155-2.217a164.03,164.03,0,0,1,36.942,4.171"
        fill="none" stroke-miterlimit="10" vector-effect="non-scaling-stroke"
        style="stroke-dasharray: 1754px, 1756px; stroke-dashoffset: 0px;"></path>
    <path
        d="M-11.928,107.643c27.158-10.488,59.569-10.38,85.642.2,21.734,8.818,38.468,24.007,55.394,40.054,4.13,3.9,8.206,7.841,12.405,11.679,14.207,13.013,29.533,24.674,48.414,32.4,31.074,12.7,67.5,13.436,101.716,15.626,5.318.349,10.589.763,15.8,1.305,14.684,1.57,27.843,3.9,42.02,4.941,29.331,2.157,61.514-1.114,92.72-4.845q6.114-.731,12.236-1.466c27.511-3.275,55.455-6.238,82.949-5.242a340.244,340.244,0,0,1,49.046,5.657c10.918,2.019,21.774,4.461,32.536,7.413a469.364,469.364,0,0,1,49.075,16.723c19.032,7.531,37.855,15.94,57.3,22.818,13.679,4.858,27.49,8.96,41.435,12.6A439.2,439.2,0,0,0,819.5,278.185c47.834,6.36,96.525,2.605,145.34-1.36,14.037-1.14,28.149-2.292,42.1-2.447a202.432,202.432,0,0,1,37.324,2.993"
        fill="none" stroke-miterlimit="10" vector-effect="non-scaling-stroke"
        style="stroke-dasharray: 1755px, 1757px; stroke-dashoffset: 0px;"></path>
    <path
        d="M-12.4,110.689c27.6-9.834,60.238-8.728,86.013,2.846,21.6,9.7,37.7,25.731,54.5,41.956,4.082,3.926,8.155,7.864,12.384,11.668,14.28,12.869,30.052,24.06,48.876,31.722,31.055,12.633,67.185,14.708,101.5,16.684,5.314.313,10.591.649,15.82,1.06,14.724,1.191,28.3,2.78,42.631,3.291,29.761,1.06,61.632-2.441,92.762-6.176q6.107-.733,12.218-1.462c27.452-3.251,55.33-6.125,82.838-5.49a359.085,359.085,0,0,1,49.206,4.713c10.975,1.794,21.885,4.034,32.7,6.815A443.574,443.574,0,0,1,668.3,234.427c19.1,7.355,37.941,15.627,57.268,22.691,13.622,4.993,27.353,9.39,41.24,13.3a413.64,413.64,0,0,0,52.582,11.518c47.722,6.916,96.352,3.122,145.113-.894,14.013-1.154,28.087-2.322,42.033-2.676a255.092,255.092,0,0,1,37.707,1.814"
        fill="none" stroke-miterlimit="10" vector-effect="non-scaling-stroke"
        style="stroke-dasharray: 1757px, 1759px; stroke-dashoffset: 0px;"></path>
    <path
        d="M-12.87,113.736c28.045-9.182,60.9-7.073,86.384,5.492,21.465,10.585,36.933,27.455,53.609,43.857,4.034,3.957,8.1,7.887,12.361,11.658a170.7,170.7,0,0,0,49.338,31.05c31.037,12.568,66.877,15.979,101.287,17.741,5.31.277,10.594.536,15.845.816,14.764.81,28.757,1.739,43.243,1.639,30.187-.209,61.748-3.766,92.8-7.507q6.1-.735,12.2-1.457c27.392-3.227,55.206-6.011,82.728-5.739a379.962,379.962,0,0,1,49.365,3.77c11.033,1.568,22,3.608,32.854,6.218a420.016,420.016,0,0,1,49.428,15.5c19.17,7.179,38.028,15.313,57.239,22.562q20.346,7.695,41.045,14a391.524,391.524,0,0,0,52.415,12.35c47.61,7.472,96.179,3.64,144.886-.427,13.99-1.168,28.025-2.353,41.972-2.906a335.229,335.229,0,0,1,38.088.635"
        fill="none" stroke-miterlimit="10" vector-effect="non-scaling-stroke"
        style="stroke-dasharray: 1760px, 1762px; stroke-dashoffset: 0px;"></path>
    <path
        d="M-13.341,116.782c28.489-8.529,61.534-5.367,86.755,8.14,21.3,11.513,36.166,29.178,52.716,45.758,3.986,3.987,8.053,7.91,12.34,11.646a174.871,174.871,0,0,0,49.8,30.378c31.019,12.5,66.568,17.251,101.073,18.8q7.957.36,15.869.571c14.805.43,29.211.515,43.855-.012,30.611-1.188,61.866-5.092,92.845-8.837q6.091-.736,12.182-1.454c27.333-3.2,55.081-5.9,82.617-5.987a403.04,403.04,0,0,1,49.526,2.827c11.09,1.342,22.106,3.181,33.012,5.621a399.19,399.19,0,0,1,49.6,14.886c19.24,7,38.115,15,57.21,22.435,13.507,5.265,27.079,10.253,40.85,14.7a371.739,371.739,0,0,0,52.248,13.182c47.5,8.028,96.005,4.157,144.659.039,13.967-1.182,27.963-2.383,41.911-3.135,13.01-.687,25.977-.918,38.47-.544"
        fill="none" stroke-miterlimit="10" vector-effect="non-scaling-stroke"
        style="stroke-dasharray: 1763px, 1765px; stroke-dashoffset: 0px;"></path>
    <path
        d="M-13.812,119.828c28.933-7.876,62.213-3.756,87.126,10.787,26.255,15.326,41.817,40.146,64.142,59.295,38.6,33.109,95.705,47.426,151.119,49.561s110.475-6.551,165.411-12.953,111.535-10.475,165.363.671c69.668,14.426,129.546,53.287,199.7,66,73.621,13.337,149.8-3.483,225.134-4.582"
        fill="none" stroke-miterlimit="10" vector-effect="non-scaling-stroke"
        style="stroke-dasharray: 1767px, 1769px; stroke-dashoffset: 0px;"></path>
    <path
        d="M1044.307,290.917c-21.256,1.345-42.884,3.805-64.8,6.019-45.728,4.57-91.826,8.145-136.652,2.986-8.562-.987-17.1-2.294-25.605-3.974C780.82,288.76,746.925,275,712.8,262.133c-32.135-12.121-64.1-23.456-98.182-29.2-10.276-1.724-20.639-2.92-31.062-3.691-5.173-.383-10.386-.657-15.633-1-11.84-.765-23.226-1.848-35-2.09a356.822,356.822,0,0,0-38.762,1.705c-12.857,1.173-25.684,2.745-38.515,4.074q-3.955.41-7.886.792c-21.147,2.058-42.023,3.588-63.284,5.688-12.282,1.217-24.571,2.628-36.831,3.783-22.334,2.108-44.7,3.493-67.168,2.894-54.164-1.443-110.009-15.132-148.177-46.914-21.922-18.355-37.386-42.227-62.935-57.156-24.343-14.227-56.526-18.654-84.321-11.755"
        fill="none" stroke-miterlimit="10" vector-effect="non-scaling-stroke"
        style="stroke-dasharray: 1765px, 1767px; stroke-dashoffset: 0px;"></path>
    <path
        d="M1044.435,293.232c-20.961,2.375-42.6,5.695-64.812,8.309C933.451,306.88,886.492,309.3,841.3,303.2q-12.954-1.75-25.835-4.485c-36.739-7.83-71.126-21.86-105.952-34.094-32.8-11.522-65.251-21.447-99.62-25.944-10.376-1.342-20.825-2.171-31.328-2.6-5.209-.219-10.482-.329-15.81-.672-12.071-.777-23.165-2.707-35.013-3.346-12.825-.646-26.225.249-39.238,1.651-12.986,1.4-25.935,3.287-38.969,4.534q-4.018.386-8,.7c-21.42,1.684-42.282,1.981-63.88,3.808-12.46,1.062-24.925,2.639-37.318,3.977-22.588,2.443-45.2,4.328-67.957,3.992C219.471,249.924,164.8,237,127.143,206.439c-21.565-17.5-36.885-40.485-61.727-55.016C41.643,137.512,10.556,132.778-16.1,138.7"
        fill="none" stroke-miterlimit="10" vector-effect="non-scaling-stroke"
        style="stroke-dasharray: 1763px, 1765px; stroke-dashoffset: 0px;"></path>
    <path
        d="M1044.563,295.546c-20.666,3.406-42.31,7.585-64.828,10.6-46.616,6.109-94.436,7.366-140,.323q-13.064-2.023-26.065-5C776.625,293,741.747,278.7,706.217,267.1c-33.462-10.922-66.4-19.437-101.056-22.685-10.476-.96-21.013-1.421-31.594-1.519-5.246-.053-10.58,0-15.989-.347-12.3-.79-23.1-3.6-35.024-4.6-12.859-1.086-26.573-.03-39.713,1.6-13.115,1.627-26.186,3.829-39.424,4.994q-4.081.36-8.109.6c-21.694,1.309-42.54.374-64.477,1.928-12.638.906-25.277,2.651-37.8,4.171-22.843,2.778-45.7,5.158-68.745,5.089-51.648-.153-105.11-12.339-142.295-41.62-21.182-16.68-36.384-38.743-60.52-52.877-23.2-13.595-53.193-18.635-78.711-13.691"
        fill="none" stroke-miterlimit="10" vector-effect="non-scaling-stroke"
        style="stroke-dasharray: 1763px, 1765px; stroke-dashoffset: 0px;"></path>
    <path
        d="M1044.691,297.86c-20.371,4.437-42.023,9.475-64.845,12.891-47.06,6.878-95.741,6.977-141.673-1.009q-13.173-2.3-26.295-5.506c-37.35-9.116-72.72-23.694-108.953-34.655-34.126-10.323-67.544-17.428-102.493-19.426-10.576-.578-21.2-.672-31.861-.434-5.283.113-10.677.33-16.166-.022-12.532-.8-23.038-4.462-35.035-5.86-12.895-1.5-26.921-.31-40.189,1.545-13.244,1.854-26.437,4.371-39.878,5.455q-4.144.333-8.221.5c-21.967.935-42.8-1.233-65.074.048-12.816.75-25.63,2.663-38.29,4.365-23.1,3.114-46.194,5.98-69.534,6.187-50.383.446-102.633-10.971-139.353-38.974-20.8-15.859-35.883-37-59.314-50.738-22.631-13.279-51.526-18.625-75.9-14.658"
        fill="none" stroke-miterlimit="10" vector-effect="non-scaling-stroke"
        style="stroke-dasharray: 1763px, 1765px; stroke-dashoffset: 0px;"></path>
    <path
        d="M1044.819,300.175c-20.076,5.467-41.736,11.364-64.861,15.18a416.018,416.018,0,0,1-143.347-2.339Q823.327,310.45,810.086,307c-37.656-9.758-73.516-24.611-110.454-34.936-34.789-9.723-68.69-15.418-103.929-16.167-10.676-.195-21.388.078-32.127.652a139.387,139.387,0,0,1-16.344.3c-12.763-.815-22.975-5.327-35.046-7.117-12.931-1.916-27.269-.589-40.664,1.493-13.374,2.08-26.689,4.912-40.333,5.914-2.806.206-5.581.336-8.332.407-22.242.561-43.059-2.84-65.672-1.832-12.994.594-25.983,2.674-38.776,4.559-23.351,3.449-46.686,6.8-70.323,7.285-49.115,1.016-100.151-9.605-136.411-36.327-20.409-15.04-35.383-35.259-58.107-48.6-22.061-12.963-49.859-18.616-73.1-15.627"
        fill="none" stroke-miterlimit="10" vector-effect="non-scaling-stroke"
        style="stroke-dasharray: 1764px, 1766px; stroke-dashoffset: 0px;"></path>
    <path
        d="M1044.947,302.489c-19.781,6.5-41.44,13.305-64.877,17.471-47.93,8.521-98.352,6.2-145.021-3.67q-13.393-2.84-26.755-6.528c-37.961-10.4-74.313-25.528-111.954-35.216a394.519,394.519,0,0,0-105.367-12.908c-10.776.187-21.575.828-32.393,1.737a111.87,111.87,0,0,1-16.522.628c-12.993-.828-22.91-6.191-35.056-8.373-12.966-2.33-27.617-.869-41.14,1.439-13.5,2.307-26.94,5.454-40.787,6.374-2.848.189-5.661.286-8.444.311-22.515.186-43.317-4.447-66.268-3.712-13.172.439-26.336,2.686-39.263,4.753-23.605,3.785-47.176,7.6-71.111,8.382-47.846,1.559-97.667-8.241-133.471-33.679-20.017-14.223-34.881-33.517-56.9-46.46-21.491-12.647-48.193-18.607-70.295-16.595"
        fill="none" stroke-miterlimit="10" vector-effect="non-scaling-stroke"
        style="stroke-dasharray: 1766px, 1768px; stroke-dashoffset: 0px;"></path>
    <path
        d="M1045.075,304.8c-19.486,7.529-41.152,15.2-64.893,19.762-48.371,9.3-99.657,5.81-146.7-5q-13.5-3.111-26.983-7.038c-38.267-11.044-75.111-26.445-113.455-35.5a377.467,377.467,0,0,0-106.8-9.649c-10.876.57-21.763,1.578-32.66,2.823-5.393.61-10.968,1.317-16.7.953-13.224-.841-22.847-7.053-35.067-9.63-13-2.742-27.965-1.149-41.616,1.386-13.633,2.533-27.191,6-41.242,6.834-2.89.172-5.739.237-8.555.215-22.789-.188-43.576-6.054-66.865-5.592-13.35.283-26.689,2.7-39.749,4.946-23.859,4.121-47.665,8.4-71.9,9.481-46.573,2.074-95.176-6.88-130.529-31.033-19.624-13.407-34.38-31.774-55.692-44.32-20.921-12.332-46.526-18.6-67.49-17.563"
        fill="none" stroke-miterlimit="10" vector-effect="non-scaling-stroke"
        style="stroke-dasharray: 1768px, 1770px; stroke-dashoffset: 0px;"></path>
    <path
        d="M1045.2,307.117c-19.192,8.56-40.863,17.091-64.909,22.053-48.813,10.071-100.962,5.42-148.37-6.333q-13.612-3.382-27.213-7.55C766.138,303.6,728.8,287.926,689.755,279.511c-36.779-7.925-72.131-9.391-108.24-6.391-10.976.953-21.95,2.328-32.926,3.909-5.43.776-11.066,1.646-16.878,1.278-13.454-.853-22.783-7.914-35.077-10.887-13.037-3.152-28.313-1.428-42.092,1.333-13.762,2.76-27.442,6.537-41.7,7.294-2.932.156-5.818.187-8.667.119-23.062-.563-43.834-7.662-67.462-7.472-13.528.127-27.042,2.709-40.235,5.14-24.113,4.456-48.153,9.19-72.689,10.578-45.3,2.563-92.681-5.522-127.587-28.385C76.978,243.433,62.327,226,41.72,213.845c-20.349-12.015-44.858-18.587-64.684-18.53"
        fill="none" stroke-miterlimit="10" vector-effect="non-scaling-stroke"
        style="stroke-dasharray: 1772px, 1774px; stroke-dashoffset: 0px;"></path>
    <path
        d="M1045.331,309.432c-18.9,9.59-40.575,18.982-64.926,24.343-49.254,10.843-102.267,5.031-150.043-7.664-9.149-2.437-18.291-5.146-27.443-8.061-38.878-12.329-76.7-28.278-116.456-36.057-37.443-7.325-73.278-7.381-109.678-3.131-11.076,1.335-22.137,3.077-33.192,5-5.467.941-11.163,1.974-17.055,1.6-13.685-.866-22.72-8.774-35.088-12.143-13.073-3.562-28.661-1.708-42.568,1.279-13.891,2.987-27.693,7.079-42.15,7.754-2.975.139-5.9.137-8.779.023-23.335-.937-44.093-9.269-68.059-9.352-13.7-.029-27.394,2.721-40.721,5.334-24.368,4.792-48.64,9.969-73.477,11.676-44.027,3.027-90.182-4.169-124.646-25.738C72.221,252.508,57.671,236,37.771,224.249c-19.779-11.7-43.192-18.578-61.879-19.5"
        fill="none" stroke-miterlimit="10" vector-effect="non-scaling-stroke"
        style="stroke-dasharray: 1776px, 1778px; stroke-dashoffset: 0px;"></path>
    <path
        d="M1045.459,311.746c-18.6,10.621-40.287,20.872-64.942,26.633-49.7,11.613-103.572,4.643-151.717-9-9.222-2.617-18.44-5.5-27.673-8.571-39.184-12.972-77.5-29.195-117.957-36.337-38.106-6.726-74.424-5.372-111.114.127-11.176,1.718-22.325,3.827-33.459,6.081-5.5,1.107-11.26,2.3-17.233,1.926-13.914-.878-22.656-9.632-35.1-13.4-13.109-3.969-29.009-1.988-43.044,1.227-14.02,3.213-27.944,7.62-42.6,8.214-3.017.121-5.977.086-8.891-.074-23.609-1.311-44.351-10.876-68.655-11.232-13.884-.184-27.748,2.732-41.208,5.528C257.242,288,232.736,293.61,207.6,295.648c-42.754,3.466-87.677-2.821-121.705-23.092-18.426-10.977-32.877-26.548-52.071-37.9C14.613,223.27-7.7,216.084-25.252,214.187"
        fill="none" stroke-miterlimit="10" vector-effect="non-scaling-stroke"
        style="stroke-dasharray: 1781px, 1783px; stroke-dashoffset: 0px;"></path>
    <path
        d="M1045.587,314.06c-18.307,11.652-40,22.762-64.958,28.924-50.139,12.381-104.878,4.253-153.391-10.326-9.3-2.8-18.59-5.858-27.9-9.082-39.489-13.615-78.3-30.112-119.457-36.617-38.77-6.127-75.571-3.364-112.551,3.386-11.276,2.1-22.512,4.576-33.725,7.166-5.541,1.272-11.357,2.633-17.411,2.251-14.145-.89-22.594-10.49-35.109-14.656-13.146-4.376-29.357-2.267-43.52,1.174s-28.195,8.162-43.059,8.674a86.372,86.372,0,0,1-9-.17c-23.882-1.686-44.61-12.483-69.252-13.112-14.062-.34-28.1,2.744-41.694,5.722-24.876,5.463-49.616,11.491-75.055,13.871-41.482,3.882-85.166-1.479-118.763-20.444-18.021-10.173-32.376-24.806-50.864-35.764C11.234,233.989-9.986,226.5-26.4,223.623"
        fill="none" stroke-miterlimit="10" vector-effect="non-scaling-stroke"
        style="stroke-dasharray: 1787px, 1789px; stroke-dashoffset: 0px;"></path>
    <path
        d="M1045.715,316.374c-18.012,12.683-39.713,24.65-64.974,31.215-50.583,13.146-106.183,3.864-155.065-11.657-9.369-2.981-18.739-6.215-28.133-9.593-39.795-14.258-79.1-31.029-120.958-36.9-39.433-5.527-76.717-1.354-113.988,6.645-11.375,2.482-22.7,5.326-33.991,8.252-5.577,1.438-11.454,2.962-17.589,2.576-14.375-.9-22.531-11.347-35.119-15.913-13.183-4.781-29.705-2.546-44,1.121s-28.446,8.7-43.513,9.134a80.5,80.5,0,0,1-9.113-.266c-24.157-2.06-44.869-14.09-69.85-14.992-14.239-.5-28.453,2.756-42.18,5.916-25.13,5.8-50.1,12.233-75.843,14.969-40.213,4.275-82.651-.144-115.822-17.8-17.613-9.373-31.875-23.064-49.658-33.624a212.052,212.052,0,0,0-53.464-22.4"
        fill="none" stroke-miterlimit="10" vector-effect="non-scaling-stroke"
        style="stroke-dasharray: 1794px, 1796px; stroke-dashoffset: 0px;"></path>
    <path
        d="M1045.843,318.689c-17.717,13.713-39.426,26.536-64.991,33.5-51.027,13.909-107.487,3.475-156.738-12.989-9.443-3.161-18.888-6.571-28.362-10.1-40.1-14.9-79.894-31.946-122.459-37.178-40.1-4.928-77.865.655-115.425,9.9-11.476,2.864-22.887,6.076-34.257,9.337-5.614,1.6-11.552,3.291-17.767,2.9-14.606-.915-22.47-12.2-35.13-17.169-13.221-5.187-30.054-2.827-44.472,1.067s-28.7,9.246-43.967,9.594a75.654,75.654,0,0,1-9.225-.362c-24.43-2.435-45.128-15.7-70.447-16.872-14.417-.652-28.806,2.767-42.666,6.11-25.384,6.133-50.6,12.96-76.632,16.067-38.945,4.647-80.129,1.183-112.881-15.151-17.2-8.578-31.374-21.322-48.45-31.486a281.079,281.079,0,0,0-50.659-23.37"
        fill="none" stroke-miterlimit="10" vector-effect="non-scaling-stroke"
        style="stroke-dasharray: 1801px, 1803px; stroke-dashoffset: 0px;"></path>
    <path
        d="M1045.971,321c-17.422,14.744-39.153,28.374-65.007,35.8-51.5,14.573-108.793,3.085-158.412-14.32-9.516-3.343-19.037-6.928-28.592-10.615C753.554,316.322,713.269,299,670,294.406c-40.76-4.328-79.011,2.665-116.861,13.163-11.576,3.247-23.074,6.826-34.524,10.423-5.651,1.77-11.649,3.62-17.945,3.226-14.836-.928-22.408-13.057-35.14-18.426-13.259-5.591-30.4-3.106-44.948,1.015s-28.949,9.787-44.421,10.053a71.742,71.742,0,0,1-9.337-.458c-24.7-2.809-45.386-17.3-71.043-18.752-14.6-.808-29.159,2.779-43.153,6.3-25.638,6.469-51.089,13.671-77.421,17.164-37.681,5-77.6,2.5-109.939-12.5-16.786-7.789-30.873-19.58-47.243-29.347C1.1,266.149-16.833,257.737-29.829,251.93"
        fill="none" stroke-miterlimit="10" vector-effect="non-scaling-stroke"
        style="stroke-dasharray: 1810px, 1812px; stroke-dashoffset: 0px;"></path>
    <path
        d="M1046.1,323.317c-17.127,15.775-38.866,30.264-65.023,38.086-51.944,15.344-110.1,2.7-160.086-15.651-9.589-3.523-19.187-7.284-28.822-11.125-40.712-16.185-81.488-33.779-125.46-37.738-41.424-3.729-80.158,4.674-118.3,16.422-11.675,3.629-23.261,7.575-34.79,11.509-5.687,1.935-11.746,3.948-18.122,3.55-15.067-.941-22.347-13.911-35.152-19.683-13.3-5.993-30.749-3.385-45.423.962s-29.2,10.329-44.876,10.513a68.391,68.391,0,0,1-9.448-.554c-24.977-3.183-45.645-18.911-71.64-20.632-14.774-.963-29.512,2.791-43.639,6.5-25.893,6.8-51.586,14.365-78.209,18.262-36.422,5.33-75.071,3.805-107-9.857-16.37-7-30.372-17.837-46.036-27.207-16.357-9.8-33.192-18.522-45.049-25.306"
        fill="none" stroke-miterlimit="10" vector-effect="non-scaling-stroke"
        style="stroke-dasharray: 1819px, 1821px; stroke-dashoffset: 0px;"></path>
    <path
        d="M1046.227,325.631c-16.832,16.806-38.579,32.154-65.039,40.377-52.388,16.113-111.4,2.308-161.76-16.982-9.663-3.7-19.336-7.641-29.052-11.636-41.017-16.828-82.285-34.7-126.961-38.019-42.087-3.129-81.3,6.683-119.735,19.681-11.776,4.012-23.449,8.325-35.056,12.595-5.725,2.1-11.843,4.278-18.3,3.875-15.3-.953-22.287-14.765-35.162-20.94-13.336-6.4-31.1-3.665-45.9.909s-29.451,10.871-45.33,10.974a65.5,65.5,0,0,1-9.56-.651c-25.25-3.558-45.9-20.518-72.237-22.512-14.951-1.119-29.865,2.8-44.125,6.691-26.147,7.14-52.086,15.042-79,19.36-35.167,5.644-72.534,5.1-104.056-7.209-15.951-6.228-29.872-16.1-44.83-25.068C-5.66,287.588-21.4,278.563-32.117,270.8"
        fill="none" stroke-miterlimit="10" vector-effect="non-scaling-stroke"
        style="stroke-dasharray: 1829px, 1831px; stroke-dashoffset: 0px;"></path>
    <path
        d="M1046.355,327.946c-16.537,17.836-38.292,34.043-65.055,42.667C928.468,387.5,868.591,372.531,817.866,352.3c-9.736-3.887-19.485-8-29.282-12.147-41.323-17.471-83.081-35.613-128.461-38.3-42.751-2.53-82.451,8.692-121.172,22.939-11.876,4.395-23.636,9.075-35.323,13.681-5.761,2.266-11.94,4.607-18.478,4.2-15.528-.966-22.228-15.618-35.173-22.2-13.376-6.8-31.445-3.945-46.375.855s-29.7,11.413-45.784,11.434a63,63,0,0,1-9.672-.747c-25.524-3.932-46.162-22.125-72.834-24.392-15.129-1.275-30.217,2.814-44.61,6.885-26.4,7.476-52.594,15.7-79.788,20.458C117,340.91,80.921,341.345,49.8,330.408c-15.529-5.457-29.37-14.353-43.622-22.928-15.216-9.172-29.857-18.5-39.438-27.242"
        fill="none" stroke-miterlimit="10" vector-effect="non-scaling-stroke"
        style="stroke-dasharray: 1841px, 1843px; stroke-dashoffset: 0px;"></path>
    <path
        d="M1046.483,330.26c-16.242,18.867-38,35.933-65.072,44.958C928.136,392.87,867.4,376.747,816.3,355.573c-9.81-4.067-19.634-8.353-29.512-12.657-41.628-18.114-83.878-36.53-129.962-38.58-43.414-1.93-83.6,10.7-122.609,26.2-11.975,4.776-23.823,9.824-35.589,14.766-5.8,2.432-12.037,4.936-18.655,4.525-15.759-.979-22.182-16.447-35.184-23.453-13.429-7.176-31.793-4.224-46.851.8S367.989,339.13,351.7,339.069a60.681,60.681,0,0,1-9.783-.843c-25.8-4.307-46.421-23.732-73.431-26.272-15.308-1.431-30.571,2.826-45.1,7.079-26.656,7.811-53.106,16.329-80.576,21.556-32.677,6.218-67.451,7.633-98.174-1.916-15.108-4.7-28.869-12.611-42.415-20.79-14.645-8.856-28.191-18.493-36.633-28.21"
        fill="none" stroke-miterlimit="10" vector-effect="non-scaling-stroke"
        style="stroke-dasharray: 1853px, 1855px; stroke-dashoffset: 0px;"></path>
    <path
        d="M1046.611,332.574c-15.947,19.9-37.718,37.824-65.088,47.248C927.8,398.244,866.2,380.963,814.742,358.847c-9.883-4.249-19.784-8.71-29.741-13.168-41.935-18.757-84.676-37.447-131.463-38.86-44.078-1.331-84.745,12.711-124.046,29.457-12.076,5.159-24.011,10.575-35.855,15.852-5.835,2.6-12.135,5.265-18.834,4.85-15.988-.991-22.12-17.306-35.194-24.71-13.467-7.584-32.141-4.5-47.326.75s-30.205,12.5-46.694,12.353a58.641,58.641,0,0,1-9.894-.939c-26.072-4.681-46.68-25.339-74.028-28.152-15.485-1.586-30.924,2.837-45.583,7.273-26.91,8.147-53.627,16.936-81.365,22.653-31.443,6.481-64.908,8.873-95.232.732C24.8,343,11.119,336.068-1.721,328.287c-14.075-8.54-26.524-18.484-33.828-29.178"
        fill="none" stroke-miterlimit="10" vector-effect="non-scaling-stroke"
        style="stroke-dasharray: 1866px, 1868px; stroke-dashoffset: 0px;"></path>
    <path
        d="M1046.739,334.889c-15.653,20.928-37.431,39.713-65.1,49.538-54.163,19.192-116.624.751-168.456-22.306-9.956-4.43-19.932-9.067-29.97-13.679-42.24-19.4-85.473-38.364-132.964-39.14-44.741-.732-85.891,14.72-125.482,32.716-12.176,5.541-24.2,11.324-36.122,16.937-5.871,2.763-12.231,5.594-19.011,5.175-16.219-1-22.059-18.165-35.2-25.967-13.5-7.992-32.489-4.783-47.8.7s-30.456,13.038-47.148,12.813a56.956,56.956,0,0,1-10.006-1.035c-26.345-5.055-46.938-26.946-74.625-30.032-15.663-1.742-31.276,2.849-46.069,7.467-27.164,8.482-54.156,17.516-82.154,23.751-30.219,6.729-62.365,10.09-92.29,3.378a134.191,134.191,0,0,1-40-16.511c-13.5-8.224-24.858-18.475-31.023-30.146"
        fill="none" stroke-miterlimit="10" vector-effect="non-scaling-stroke"
        style="stroke-dasharray: 1880px, 1882px; stroke-dashoffset: 0px;"></path>
    <path
        d="M1046.867,337.2c-15.358,21.959-37.145,41.6-65.12,51.829-54.608,19.961-117.929.362-170.13-23.638s-105.008-53.437-164.664-53.61c-59.38-.172-112.31,28.719-163.307,54-5.909,2.928-12.329,5.922-19.19,5.5-16.449-1.016-22-19.023-35.215-27.222-13.542-8.4-32.837-5.063-48.278.643s-30.707,13.58-47.6,13.273c-31.789-.576-53.869-29.271-85.34-33.043-15.841-1.9-31.629,2.861-46.555,7.661-27.419,8.817-54.7,18.067-82.942,24.849-29,6.964-59.829,11.282-89.35,6.025s-57.542-21.662-67.011-45.486"
        fill="none" stroke-miterlimit="10" vector-effect="non-scaling-stroke"
        style="stroke-dasharray: 1893px, 1895px; stroke-dashoffset: 0px;"></path>
</svg>